<svg width="49" height="49" viewBox="0 0 49 49" fill="none" xmlns="http://www.w3.org/2000/svg">
<path fill-rule="evenodd" clip-rule="evenodd" d="M11.3421 13.1931C8.64754 16.3285 7.15139 20.3371 7.15139 24.4999C7.15139 29.101 8.97918 33.5137 12.2327 36.7672C15.4862 40.0207 19.8988 41.8485 24.5 41.8485C28.6628 41.8485 32.6714 40.3524 35.8068 37.6578L27.0536 28.9046H20.3331C20.199 28.9046 20.0903 28.7959 20.0903 28.6618L20.0903 21.9413L11.3421 13.1931ZM37.6535 35.8119L28.9 27.0584L28.9 20.3377C28.9 20.2036 28.7913 20.0948 28.6572 20.0948L21.9365 20.0948L13.1881 11.3464C16.3243 8.64916 20.3349 7.15138 24.5 7.15139C29.1012 7.15139 33.5138 8.97918 36.7673 12.2327C40.0208 15.4862 41.8486 19.8988 41.8486 24.5C41.8486 28.6651 40.3508 32.6757 37.6535 35.8119Z" fill="#D9D9D9"/>
</svg>
